<?xml version="1.0" encoding="utf-8"?>
<!-- Generator: Adobe Illustrator 14.0.0, SVG Export Plug-In . SVG Version: 6.00 Build 43363)  -->
<!DOCTYPE svg PUBLIC "-//W3C//DTD SVG 1.1//EN" "http://www.w3.org/Graphics/SVG/1.1/DTD/svg11.dtd">
<svg version="1.1" id="Layer_1" xmlns="http://www.w3.org/2000/svg" xmlns:xlink="http://www.w3.org/1999/xlink" x="0px" y="0px"
	 width="841.89px" height="250px" viewBox="0 0 841.89 250" enable-background="new 0 0 841.89 250" xml:space="preserve">
<g>
	<g>
		<path fill="#B3CE5B" d="M112.705,202.723c5.31,1.424,10.795,2.425,16.418,2.97c1.376-5.54,3.233-10.895,5.523-16.021
			c-6.393-1.158-12.572-2.915-18.475-5.21C114.452,190.342,113.276,196.447,112.705,202.723z"/>
		<path fill="#B3CE5B" d="M124.076,165.355c6.337,3.223,13.07,5.795,20.109,7.633c3.905-5.493,8.369-10.576,13.311-15.168
			c-7.833-2.055-15.287-5.022-22.236-8.781C131.002,154.077,127.25,159.541,124.076,165.355z"/>
		<path fill="#B3CE5B" d="M222.773,115.078c-3.646-0.301-7.236-0.797-10.759-1.474c-11.806-2.27-22.866-6.583-32.782-12.551
			c-7.111-4.28-13.633-9.41-19.421-15.248c-4.403-4.441-8.38-9.291-11.868-14.486c-3.673-5.473-6.801-11.328-9.311-17.492
			c-2.042-5.017-3.675-10.236-4.856-15.622c-1.199-5.464-1.935-11.099-2.163-16.861c-3-0.269-6.04-0.407-9.11-0.407
			c-2.335,0-4.652,0.082-6.948,0.238c-0.466,3.843-0.708,7.755-0.708,11.723c0,2.691,0.112,5.355,0.329,7.991
			c0.503,6.126,1.58,12.093,3.178,17.847c1.91,6.877,4.563,13.452,7.87,19.638c2.999,5.609,6.536,10.897,10.543,15.8
			c4.802,5.875,10.278,11.195,16.316,15.847c5.922,4.561,12.384,8.479,19.274,11.646c-7.155,3.051-13.875,6.901-20.042,11.437
			c8.07,4.402,16.828,7.736,26.074,9.809c13.187-7.054,28.176-11.269,44.114-11.812c0.018-0.185,0.036-0.37,0.053-0.556
			c0.271-3.012,0.412-6.061,0.412-9.143C222.969,119.278,222.903,117.169,222.773,115.078z"/>
		<path fill="#09A8C3" d="M178.391,142.911c-9.247-2.072-18.004-5.406-26.074-9.809c-6.058-3.304-11.729-7.209-16.929-11.634
			c5.445-4.403,11.375-8.249,17.697-11.449c-6.038-4.651-11.515-9.972-16.316-15.847c-5.982,3.046-11.611,6.67-16.808,10.796
			c-3.946-5.327-7.357-11.061-10.159-17.123c5.129-3.646,10.625-6.825,16.423-9.473c-3.307-6.186-5.96-12.761-7.87-19.638
			c-5.455,1.939-10.688,4.332-15.653,7.133c-1.16-5.979-1.769-12.149-1.769-18.459c0-0.651,0.008-1.301,0.021-1.949
			c4.579-1.858,9.329-3.393,14.222-4.571c-0.217-2.636-0.329-5.3-0.329-7.991c0-3.968,0.242-7.88,0.708-11.723
			c-3.862,0.263-7.666,0.745-11.397,1.435c-4.495,0.829-8.886,1.958-13.149,3.364c-2.415,0.797-4.79,1.683-7.12,2.653
			c-2.74,1.143-5.418,2.4-8.029,3.771c-0.638,0.335-1.271,0.677-1.901,1.025c-30.957,17.118-51.921,50.099-51.921,87.978
			c0,36.668,19.645,68.746,48.982,86.288c0.033,0.029,0.065,0.06,0.098,0.09c-0.013-0.019-0.026-0.036-0.04-0.055
			c2.766,1.65,5.617,3.172,8.546,4.557c3.196,1.512,6.484,2.857,9.854,4.031c3.951,1.374,8.015,2.508,12.172,3.386
			c3.648,0.771,7.369,1.343,11.152,1.704c3.193,0.307,6.429,0.466,9.701,0.466c1.356,0,2.705-0.029,4.048-0.081
			c29.062-1.152,54.949-14.649,72.563-35.392c-16.713,12.411-37.528,19.773-60.096,19.773c-3.34,0-6.64-0.162-9.896-0.477
			c-5.623-0.545-11.108-1.546-16.418-2.97c-4.719-1.264-9.298-2.858-13.71-4.76c-0.002-0.275-0.006-0.55-0.006-0.826
			c0-6.872,0.723-13.578,2.094-20.052c4.78,2.858,9.824,5.331,15.088,7.377c5.903,2.295,12.082,4.052,18.475,5.21
			c5.906,1.07,11.993,1.632,18.214,1.632c20.025,0,38.67-5.798,54.295-15.774c1.739-2.713,3.351-5.516,4.828-8.399
			c-12.796,5.863-27.068,9.137-42.12,9.137c-8.878,0-17.485-1.141-25.678-3.278c-7.039-1.838-13.772-4.41-20.109-7.633
			c-5.538-2.815-10.773-6.125-15.646-9.871c2.951-6.158,6.535-11.965,10.67-17.342c4.993,4.129,10.403,7.783,16.16,10.896
			c6.949,3.759,14.402,6.727,22.236,8.781c8.232,2.16,16.881,3.313,25.805,3.313c11.857,0,23.23-2.034,33.779-5.763
			c1.393-3.878,2.555-7.868,3.467-11.951c-6.423,1.275-13.07,1.946-19.876,1.946C193.011,145.365,185.554,144.517,178.391,142.911z
			 M103.34,121.735c-4.34,5.573-8.084,11.617-11.14,18.04c-4.684-5.7-8.729-11.93-12.031-18.578
			c3.432-6.315,7.546-12.219,12.249-17.612C95.397,110.039,99.069,116.12,103.34,121.735z M83.963,54.336
			c-0.265,2.913-0.4,5.861-0.4,8.841c0,5.298,0.43,10.498,1.254,15.568c-4.986,4.503-9.504,9.498-13.474,14.907
			c-0.801-4.999-1.218-10.123-1.218-15.342c0-4.774,0.349-9.469,1.022-14.061C75.129,60.617,79.416,57.298,83.963,54.336z
			 M40.279,122.12c1.903-13.155,6.468-25.468,13.142-36.396c-0.197,2.516-0.298,5.058-0.298,7.624
			c0,9.684,1.431,19.038,4.097,27.873c-3.021,9.353-4.653,19.313-4.653,29.648c0,2.22,0.077,4.421,0.225,6.604
			C46.46,146.806,42.122,134.857,40.279,122.12z M83.223,189.42c-5.064-3.364-9.797-7.173-14.141-11.369
			c-0.396-3.548-0.601-7.151-0.601-10.803c0-6.458,0.638-12.77,1.852-18.88c4.063,5.865,8.755,11.275,13.984,16.136
			c-0.948,5.422-1.443,10.997-1.443,16.685C82.874,183.961,82.993,186.706,83.223,189.42z"/>
		<path fill="#09A8C3" d="M139.019,38.071c23.984,0,45.99,8.315,63.194,22.169c-16.629-21.639-41.871-36.314-70.599-38.896
			c0.228,5.763,0.963,11.397,2.163,16.861C135.512,38.117,137.26,38.071,139.019,38.071z"/>
		<path fill="#09A8C3" d="M138.632,53.827c2.51,6.164,5.637,12.02,9.311,17.492c6.547-1.329,13.329-2.027,20.275-2.027
			c16.587,0,32.226,3.978,45.986,11.013c-1.549-3.454-3.289-6.805-5.204-10.037c-16.099-10.943-35.634-17.354-56.695-17.354
			C147.667,52.913,143.103,53.226,138.632,53.827z"/>
		<path fill="#09A8C3" d="M159.811,85.806c5.788,5.838,12.31,10.968,19.421,15.248c6.305-1.228,12.824-1.873,19.496-1.873
			c7.665,0,15.127,0.851,22.296,2.458c-0.826-4.143-1.907-8.192-3.226-12.135c-10.942-4.052-22.8-6.271-35.186-6.271
			C174.768,83.232,167.134,84.123,159.811,85.806z"/>
	</g>
	<g>
		<path fill="#173E6B" d="M310.005,95.274h-6.324L288.708,76.95c-0.559-0.689-0.901-1.154-1.027-1.396h-0.108v19.721h-4.54V55.217
			h4.54v18.827h0.108c0.252-0.408,0.594-0.865,1.027-1.368l14.486-17.459h5.648l-16.621,19.219L310.005,95.274z"/>
		<path fill="#173E6B" d="M346.081,95.274h-5.027l-4.108-11.229h-16.432l-3.865,11.229h-5.054l14.864-40.058h4.703L346.081,95.274z
			 M335.459,79.827l-6.081-17.068c-0.199-0.558-0.397-1.452-0.594-2.682h-0.108c-0.181,1.137-0.388,2.03-0.622,2.682l-6.026,17.068
			H335.459z"/>
		<path fill="#173E6B" d="M380.507,95.274h-5.405l-6.487-11.229c-0.594-1.043-1.171-1.932-1.729-2.668
			c-0.559-0.735-1.131-1.336-1.716-1.802c-0.585-0.465-1.216-0.806-1.892-1.02s-1.437-0.321-2.284-0.321h-3.729v17.04h-4.541V55.217
			h11.567c1.694,0,3.257,0.219,4.689,0.656c1.432,0.438,2.675,1.104,3.729,1.997c1.054,0.895,1.878,2.008,2.473,3.338
			c0.595,1.332,0.892,2.892,0.892,4.68c0,1.396-0.203,2.678-0.608,3.841c-0.406,1.164-0.982,2.202-1.729,3.114
			c-0.748,0.913-1.649,1.69-2.703,2.333c-1.055,0.643-2.24,1.142-3.555,1.495v0.111c0.649,0.298,1.212,0.638,1.689,1.02
			s0.932,0.834,1.365,1.354c0.433,0.521,0.86,1.112,1.284,1.773c0.423,0.662,0.896,1.43,1.418,2.306L380.507,95.274z
			 M357.265,59.464v14.524h6.162c1.135,0,2.184-0.177,3.148-0.53c0.963-0.354,1.797-0.86,2.5-1.522
			c0.703-0.661,1.252-1.471,1.649-2.431c0.396-0.959,0.594-2.034,0.594-3.226c0-2.142-0.671-3.813-2.013-5.015
			c-1.342-1.201-3.284-1.801-5.824-1.801H357.265z"/>
		<path fill="#173E6B" d="M411.96,55.217L399.177,80.47v14.805h-4.54V80.581l-12.459-25.364h5.162l8.675,18.102
			c0.108,0.224,0.423,1.043,0.946,2.458h0.082c0.18-0.633,0.522-1.452,1.027-2.458l9.081-18.102H411.96z"/>
		<path fill="#173E6B" d="M448.306,95.274h-5.026l-4.108-11.229h-16.432l-3.865,11.229h-5.054l14.864-40.058h4.703L448.306,95.274z
			 M437.685,79.827l-6.08-17.068c-0.199-0.558-0.397-1.452-0.596-2.682h-0.107c-0.181,1.137-0.388,2.03-0.622,2.682l-6.027,17.068
			H437.685z"/>
		<path fill="#173E6B" d="M493.971,59.464h-11.189v35.811h-4.54V59.464h-11.162v-4.247h26.892V59.464z"/>
		<path fill="#173E6B" d="M522.198,82.117h-19.54c0.072,3.186,0.9,5.644,2.485,7.375c1.586,1.731,3.767,2.598,6.541,2.598
			c3.118,0,5.982-1.062,8.595-3.184v4.301c-2.433,1.825-5.648,2.737-9.648,2.737c-3.911,0-6.982-1.298-9.216-3.897
			c-2.234-2.598-3.351-6.251-3.351-10.963c0-4.451,1.22-8.077,3.661-10.88C504.167,67.4,507.198,66,510.819,66
			s6.424,1.211,8.406,3.631c1.981,2.422,2.973,5.782,2.973,10.084V82.117z M517.658,78.234c-0.019-2.645-0.637-4.701-1.852-6.173
			c-1.217-1.472-2.906-2.207-5.067-2.207c-2.09,0-3.865,0.773-5.325,2.318c-1.458,1.546-2.36,3.567-2.701,6.062H517.658z"/>
		<path fill="#173E6B" d="M548.264,93.962c-2.127,1.321-4.648,1.982-7.567,1.982c-3.946,0-7.131-1.326-9.554-3.98
			c-2.424-2.654-3.637-6.095-3.637-10.321c0-4.712,1.307-8.496,3.92-11.355c2.612-2.858,6.099-4.287,10.459-4.287
			c2.433,0,4.577,0.465,6.433,1.396v4.693c-2.055-1.491-4.252-2.235-6.595-2.235c-2.829,0-5.148,1.047-6.959,3.143
			s-2.716,4.846-2.716,8.254c0,3.353,0.851,5.997,2.554,7.934c1.702,1.938,3.985,2.905,6.852,2.905c2.414,0,4.684-0.828,6.811-2.486
			V93.962z"/>
		<path fill="#173E6B" d="M578.436,95.274h-4.432V78.793c0-5.959-2.145-8.938-6.433-8.938c-2.162,0-3.982,0.861-5.459,2.583
			c-1.478,1.724-2.217,3.936-2.217,6.635v16.202h-4.432V52.927h4.432v18.491h0.108c2.126-3.612,5.153-5.418,9.081-5.418
			c6.234,0,9.351,3.883,9.351,11.647V95.274z"/>
		<path fill="#173E6B" d="M610.257,95.274h-4.432V78.96c0-6.07-2.145-9.105-6.433-9.105c-2.216,0-4.05,0.861-5.5,2.583
			c-1.45,1.724-2.175,3.897-2.175,6.522v16.314h-4.433V66.67h4.433v4.748h0.107c2.09-3.612,5.117-5.418,9.081-5.418
			c3.026,0,5.342,1.01,6.946,3.03c1.603,2.021,2.404,4.94,2.404,8.757V95.274z"/>
		<path fill="#173E6B" d="M630.675,95.944c-4.09,0-7.356-1.336-9.797-4.009c-2.442-2.671-3.663-6.215-3.663-10.629
			c0-4.805,1.271-8.557,3.812-11.257c2.541-2.699,5.973-4.05,10.297-4.05c4.126,0,7.347,1.313,9.662,3.938
			c2.315,2.625,3.473,6.267,3.473,10.922c0,4.563-1.248,8.218-3.743,10.964C638.219,94.571,634.872,95.944,630.675,95.944z
			 M630.999,69.854c-2.848,0-5.1,1.001-6.757,3.003s-2.487,4.763-2.487,8.282c0,3.389,0.839,6.062,2.515,8.018
			c1.675,1.954,3.918,2.933,6.729,2.933c2.865,0,5.067-0.959,6.608-2.877c1.54-1.918,2.311-4.646,2.311-8.185
			c0-3.576-0.771-6.332-2.311-8.27C636.066,70.823,633.864,69.854,630.999,69.854z"/>
		<path fill="#173E6B" d="M656.469,95.274h-4.432V52.927h4.432V95.274z"/>
		<path fill="#173E6B" d="M677.507,95.944c-4.09,0-7.355-1.336-9.797-4.009c-2.441-2.671-3.662-6.215-3.662-10.629
			c0-4.805,1.271-8.557,3.811-11.257c2.541-2.699,5.973-4.05,10.298-4.05c4.126,0,7.347,1.313,9.661,3.938
			c2.315,2.625,3.474,6.267,3.474,10.922c0,4.563-1.248,8.218-3.743,10.964C685.052,94.571,681.705,95.944,677.507,95.944z
			 M677.831,69.854c-2.847,0-5.099,1.001-6.756,3.003c-1.658,2.002-2.486,4.763-2.486,8.282c0,3.389,0.837,6.062,2.513,8.018
			c1.676,1.954,3.92,2.933,6.729,2.933c2.865,0,5.068-0.959,6.608-2.877c1.541-1.918,2.312-4.646,2.312-8.185
			c0-3.576-0.771-6.332-2.312-8.27C682.899,70.823,680.696,69.854,677.831,69.854z"/>
		<path fill="#173E6B" d="M722.491,92.983c0,10.503-4.865,15.754-14.595,15.754c-3.423,0-6.415-0.67-8.973-2.011v-4.581
			c3.117,1.788,6.09,2.682,8.919,2.682c6.811,0,10.216-3.743,10.216-11.229V90.47h-0.108c-2.107,3.649-5.279,5.475-9.514,5.475
			c-3.44,0-6.211-1.271-8.31-3.813s-3.149-5.954-3.149-10.237c0-4.861,1.131-8.726,3.393-11.594
			c2.261-2.867,5.354-4.301,9.283-4.301c3.729,0,6.495,1.546,8.297,4.636h0.108V66.67h4.433V92.983z M718.059,82.341v-4.218
			c0-2.271-0.744-4.219-2.229-5.838c-1.487-1.62-3.338-2.431-5.554-2.431c-2.739,0-4.883,1.029-6.433,3.087
			c-1.551,2.058-2.324,4.939-2.324,8.646c0,3.184,0.743,5.73,2.229,7.64c1.487,1.908,3.455,2.863,5.905,2.863
			c2.486,0,4.509-0.912,6.067-2.737S718.059,85.189,718.059,82.341z"/>
		<path fill="#173E6B" d="M734.231,59.406c-0.792,0-1.468-0.278-2.025-0.837c-0.56-0.56-0.839-1.266-0.839-2.123
			c0-0.856,0.279-1.568,0.839-2.137c0.558-0.568,1.233-0.852,2.025-0.852c0.812,0,1.501,0.283,2.068,0.852s0.852,1.28,0.852,2.137
			c0,0.819-0.284,1.519-0.852,2.096S735.043,59.406,734.231,59.406z M736.394,95.274h-4.432V66.67h4.432V95.274z"/>
		<path fill="#173E6B" d="M768.108,82.117h-19.541c0.072,3.186,0.901,5.644,2.486,7.375s3.766,2.598,6.541,2.598
			c3.116,0,5.981-1.062,8.595-3.184v4.301c-2.433,1.825-5.649,2.737-9.648,2.737c-3.911,0-6.983-1.298-9.217-3.897
			c-2.233-2.598-3.352-6.251-3.352-10.963c0-4.451,1.222-8.077,3.663-10.88C750.077,67.4,753.107,66,756.729,66
			c3.621,0,6.423,1.211,8.406,3.631c1.981,2.422,2.973,5.782,2.973,10.084V82.117z M763.566,78.234
			c-0.018-2.645-0.635-4.701-1.851-6.173s-2.906-2.207-5.067-2.207c-2.091,0-3.864,0.773-5.324,2.318
			c-1.459,1.546-2.36,3.567-2.703,6.062H763.566z"/>
		<path fill="#173E6B" d="M773.633,94.241v-4.917c2.413,1.844,5.071,2.766,7.973,2.766c3.892,0,5.838-1.341,5.838-4.022
			c0-0.764-0.167-1.411-0.501-1.941c-0.333-0.531-0.783-1.001-1.351-1.411c-0.568-0.408-1.234-0.776-2-1.103
			s-1.59-0.667-2.473-1.021c-1.226-0.502-2.302-1.01-3.229-1.521c-0.928-0.513-1.703-1.09-2.324-1.732
			c-0.622-0.642-1.091-1.373-1.405-2.192c-0.316-0.819-0.474-1.778-0.474-2.877c0-1.342,0.297-2.528,0.892-3.563
			c0.595-1.033,1.388-1.898,2.379-2.598c0.99-0.697,2.121-1.225,3.392-1.578c1.271-0.353,2.581-0.53,3.933-0.53
			c2.396,0,4.54,0.429,6.432,1.284v4.638c-2.036-1.378-4.377-2.067-7.026-2.067c-0.829,0-1.577,0.099-2.244,0.294
			c-0.666,0.195-1.237,0.47-1.716,0.823c-0.478,0.354-0.847,0.778-1.107,1.271c-0.262,0.495-0.393,1.038-0.393,1.635
			c0,0.745,0.131,1.368,0.393,1.872c0.261,0.502,0.645,0.948,1.147,1.341c0.505,0.391,1.118,0.744,1.839,1.062
			c0.72,0.315,1.541,0.66,2.46,1.033c1.225,0.483,2.324,0.982,3.296,1.494c0.974,0.512,1.802,1.089,2.487,1.732
			c0.685,0.642,1.211,1.382,1.581,2.221c0.369,0.838,0.554,1.834,0.554,2.988c0,1.416-0.302,2.645-0.905,3.687
			c-0.604,1.044-1.41,1.91-2.418,2.599c-1.01,0.689-2.172,1.201-3.487,1.537c-1.315,0.335-2.694,0.502-4.136,0.502
			C778.19,95.944,775.723,95.376,773.633,94.241z"/>
		<line fill="#808285" stroke="#414042" x1="254.306" y1="122.312" x2="820.711" y2="122.312"/>
		<circle fill="#414042" cx="612.341" cy="162.924" r="4.039"/>
		<circle fill="#414042" cx="426.326" cy="162.924" r="4.039"/>
		<circle fill="#414042" cx="285.977" cy="162.924" r="4.039"/>
		<text transform="matrix(1 0 0 1 298.7114 173.9111)" fill="#414042" font-family="'Ebrima'" font-size="34.5937">Agility</text>
		<text transform="matrix(1 0 0 1 436.8838 174.3525)" fill="#414042" font-family="'Ebrima'" font-size="34.5937">Efficiency </text>
		<text transform="matrix(1 0 0 1 625.2754 173.8193)" fill="#414042" font-family="'Ebrima'" font-size="34.5937">lnnovation</text>
		<text transform="matrix(1 0 0 1 423.5859 224.5322)" fill="#414042" font-family="'Ebrima'" font-size="24.1168">www.karyatech.com</text>
	</g>
</g>
</svg>
